#!OML:ASF Y:\EmotionMaleHayes\Project 1\Capture day 1\Session 1\Male1.ASF
:FULLY-SPECIFIED
:DEGREES
696
root -9.43377 16.7623 -17.4381 287.665 84.0402 290.359
lowerback 6.55602 2.42483 5.57832
upperback 7.43519 3.68 1.72849
thorax 4.29892 2.18952 -1.39866
lowerneck -19.5261 -4.51319 -2.58291
upperneck 23.0135 -7.833 9.65342
head 11.2367 -2.4525 2.76387
rclavicle 6.85807e-015 2.31584e-014
rhumerus -13.5267 19.5618 -87.0362
rradius 38.8182
rwrist -5.65737
rhand -11.6201 -33.6215
rfingers 7.12502
rthumb 14.423 -63.1003
lclavicle 6.85807e-015 2.31584e-014
lhumerus -20.5733 -9.33236 84.6627
lradius 29.5651
lwrist 0.13644
lhand -20.8461 -24.1281
lfingers 7.12502
lthumb 5.52296 5.77994
rfemur 9.24881 -3.65545 29.3504
rtibia 11.5574
rfoot -22.4864 -0.62731
rtoes 15.1822
lfemur -23.5637 5.23293 -6.02233
ltibia 37.5628
lfoot -11.3237 7.50438
ltoes -11.9026
697
root -9.3242 16.748 -17.4405 289.297 83.926 291.889
lowerback 6.12913 2.50324 5.3701
upperback 7.59734 3.74446 1.80538
thorax 4.69336 2.22109 -1.17282
lowerneck -19.3943 -4.49576 -2.61894
upperneck 22.7736 -7.67755 9.2418
head 11.0879 -2.45698 2.63875
rclavicle 3.48867e-014 1.64991e-014
rhumerus -13.1777 19.9733 -86.828
rradius 38.8819
rwrist -5.54943
rhand -11.6805 -33.4917
rfingers 7.12502
rthumb 14.3649 -62.9746
lclavicle 3.48867e-014 1.64991e-014
lhumerus -20.178 -8.81976 85.0305
lradius 29.8526
lwrist 0.679945
lhand -20.8667 -23.3166
lfingers 7.12502
lthumb 5.50305 6.5919
rfemur 9.69505 -3.71674 29.3062
rtibia 11.338
rfoot -22.6416 -0.376021
rtoes 15.5685
lfemur -23.7825 4.59595 -5.7711
ltibia 35.2449
lfoot -11.3237 7.50438
ltoes -11.9026
698
root -9.2135 16.7334 -17.443 290.327 83.5379 292.764
lowerback 5.93617 2.57829 5.61765
upperback 7.55487 3.8347 1.81424
thorax 4.78124 2.27709 -1.29081
lowerneck -19.0778 -4.49183 -2.52291
upperneck 22.5513 -7.58894 8.87019
head 10.9139 -2.47552 2.49999
rclavicle -1.67228e-014 2.20651e-014
rhumerus -12.8695 20.4541 -86.8715
rradius 38.606
rwrist -5.43642
rhand -12.0944 -33.0149
rfingers 7.12502
rthumb 13.966 -62.5259
lclavicle -1.67228e-014 2.20651e-014
lhumerus -20.1563 -8.75175 85.3123
lradius 30.3273
lwrist 1.56777
lhand -20.5833 -20.4594
lfingers 7.12502
lthumb 5.77667 9.44189
rfemur 9.9984 -3.92379 29.5244
rtibia 11.2728
rfoot -22.8095 0.040194
rtoes 15.3215
lfemur -23.9965 4.05648 -5.15106
ltibia 32.9671
lfoot -11.3237 7.50438
ltoes -11.9026
699
root -9.10069 16.7179 -17.4496 292.117 83.3144 294.313
lowerback 5.03797 2.574 5.51647
upperback 7.89662 3.75693 1.89592
thorax 5.63431 2.25519 -1.07943
lowerneck -19.1849 -4.4561 -2.68563
upperneck 22.3267 -7.41648 8.60499
head 10.8315 -2.45713 2.45141
rclavicle 8.4732e-015 -1.98785e-016
rhumerus -11.8588 21.4409 -86.5946
rradius 38.1335
rwrist -5.56885
rhand -12.6746 -32.6581
rfingers 7.12502
rthumb 13.4069 -62.2067
lclavicle 8.4732e-015 -1.98785e-016
lhumerus -19.5721 -8.12338 85.6261
lradius 30.7671
lwrist 2.35956
lhand -22.5394 -26.5619
lfingers 7.12502
lthumb 3.88787 3.38237
rfemur 10.2117 -4.15157 29.4754
rtibia 11.2175
rfoot -23.1014 0.529235
rtoes 14.2523
lfemur -24.2101 3.30492 -4.72492
ltibia 30.6014
lfoot -11.3237 7.50438
ltoes -11.9026
700
root -8.98632 16.7009 -17.4525 293.26 82.9824 295.252
lowerback 4.95867 2.60699 5.72431
upperback 7.75044 3.79511 1.84159
thorax 5.54549 2.27857 -1.25218
lowerneck -19.3867 -4.50429 -2.89371
upperneck 22.6501 -7.4319 8.54815
head 10.9957 -2.4732 2.46552
rclavicle 4.19684e-014 2.24627e-014
rhumerus -11.8359 21.6412 -86.8721
rradius 37.9073
rwrist -5.51098
rhand -12.6182 -32.6492
rfingers 7.12502
rthumb 13.4612 -62.1942
lclavicle 4.19684e-014 2.24627e-014
lhumerus -19.6693 -7.87622 85.8193
lradius 31.1875
lwrist 2.9989
lhand -22.559 -26.343
lfingers 7.12502
lthumb 3.86902 3.6016
rfemur 10.529 -4.17532 29.6702
rtibia 11.0491
rfoot -23.4232 0.804364
rtoes 13.6507
lfemur -24.3444 2.52098 -4.11282
ltibia 27.6254
lfoot -11.3237 7.50438
ltoes -11.9026
701
root -8.87071 16.6813 -17.4497 293.348 82.4294 295.244
lowerback 5.79937 2.6769 6.39269
upperback 7.08025 3.96963 1.64476
thorax 4.43906 2.35699 -1.90736
lowerneck -19.2785 -4.5773 -2.91622
upperneck 23.301 -7.56654 8.55999
head 11.2287 -2.50763 2.46558
rclavicle 2.45375e-014 5.7896e-015
rhumerus -12.7972 21.3959 -87.7455
rradius 37.9208
rwrist -5.25558
rhand -12.2665 -32.8584
rfingers 7.12502
rthumb 13.8002 -62.3807
lclavicle 2.45375e-014 5.7896e-015
lhumerus -20.7135 -8.44485 85.8886
lradius 31.8074
lwrist 3.88709
lhand -22.5468 -26.2518
lfingers 7.12502
lthumb 3.88075 3.69265
rfemur 10.9942 -4.19545 30.1769
rtibia 10.8477
rfoot -23.7258 1.09579
rtoes 13.8103
lfemur -24.3396 1.54101 -3.05826
ltibia 25.1949
lfoot -11.3237 7.50438
ltoes -11.9026
702
root -8.75305 16.6602 -17.4507 294.802 82.2228 296.476
lowerback 5.48261 2.72565 6.36743
upperback 7.02792 4.00449 1.58724
thorax 4.56662 2.37286 -1.93597
lowerneck -19.2281 -4.59466 -2.9129
upperneck 23.4087 -7.53298 8.30359
head 11.2433 -2.52362 2.37816
rclavicle 1.74061e-014 2.9271e-014
rhumerus -12.7467 21.7457 -87.9213
rradius 37.9155
rwrist -5.12476
rhand -12.0367 -32.8646
rfingers 7.12502
rthumb 14.0216 -62.3717
lclavicle 1.74061e-014 2.9271e-014
lhumerus -20.9149 -8.4467 86.1576
lradius 32.3372
lwrist 4.5613
lhand -22.7959 -26.1984
lfingers 7.12502
lthumb 3.64021 3.75028
rfemur 11.2855 -4.21184 30.2008
rtibia 10.7209
rfoot -24.0809 1.3615
rtoes 13.3381
lfemur -24.4335 0.35735 -2.42496
ltibia 22.6284
lfoot -11.3237 7.50438
ltoes -11.9026
703
root -8.63174 16.6422 -17.457 297.431 82.3258 298.766
lowerback 5.14366 2.82538 6.00214
upperback 6.86195 4.09716 1.44376
thorax 4.56901 2.39476 -1.87065
lowerneck -19.0864 -4.6914 -2.92649
upperneck 23.4224 -7.61152 8.09192
head 11.2153 -2.59142 2.29197
rclavicle -3.23025e-016 2.0773e-014
rhumerus -12.9545 21.8971 -88.1383
rradius 37.9293
rwrist -5.10667
rhand -11.8312 -33.0409
rfingers 7.12502
rthumb 14.2197 -62.5341
lclavicle -3.23025e-016 2.0773e-014
lhumerus -21.1753 -8.42333 86.5172
lradius 32.7283
lwrist 4.97038
lhand -23.0655 -26.2164
lfingers 7.12502
lthumb 3.37988 3.73652
rfemur 11.4073 -4.06487 29.8743
rtibia 10.6678
rfoot -24.479 1.39692
rtoes 12.1837
lfemur -24.591 -0.570812 -2.36045
ltibia 20.6324
lfoot -11.3237 7.50438
ltoes -11.9026
704
root -8.50647 16.624 -17.4654 299.459 82.2394 300.536
lowerback 3.92662 2.83748 5.47156
upperback 7.33703 4.00766 1.65899
thorax 5.69587 2.35195 -1.25673
lowerneck -19.1723 -4.6551 -3.19247
upperneck 22.9351 -7.38525 7.80279
head 11.0296 -2.57367 2.25652
rclavicle 1.4064e-014 7.10655e-015
rhumerus -12.1487 22.6954 -87.6169
rradius 37.8631
rwrist -4.91353
rhand -11.1666 -33.8866
rfingers 7.12502
rthumb 14.86 -63.3337
lclavicle 1.4064e-014 7.10655e-015
lhumerus -20.3727 -7.62013 87.137
lradius 32.5864
lwrist 4.96174
lhand -23.1975 -26.5777
lfingers 7.12502
lthumb 3.25232 3.37727
rfemur 11.6248 -4.06008 29.7077
rtibia 10.6202
rfoot -24.7714 1.53182
rtoes 10.776
lfemur -24.6306 -1.31676 -2.1397
ltibia 18.7266
lfoot -11.3237 7.50438
ltoes -11.9026
705
root -8.38181 16.6044 -17.4711 300.436 81.7325 301.313
lowerback 3.61974 2.92263 5.71094
upperback 7.3166 4.09517 1.72108
thorax 5.8703 2.4072 -1.30263
lowerneck -19.1494 -4.74721 -3.46445
upperneck 22.8613 -7.41777 7.74884
head 11.0072 -2.62517 2.27585
rclavicle 1.50082e-014 5.31749e-014
rhumerus -12.0849 22.5713 -87.7232
rradius 37.6724
rwrist -3.67391
rhand -10.2251 -34.4243
rfingers 7.12502
rthumb 15.7669 -63.8022
lclavicle 1.50082e-014 5.31749e-014
lhumerus -20.3721 -7.73545 87.5624
lradius 32.5921
lwrist 5.13118
lhand -23.3737 -26.7762
lfingers 7.12502
lthumb 3.08223 3.18127
rfemur 11.935 -4.07833 30.0098
rtibia 10.5323
rfoot -24.9042 1.76795
rtoes 9.64641
lfemur -24.5308 -2.92047 -0.887376
ltibia 15.3229
lfoot -11.3237 7.50438
ltoes -11.9026
706
root -8.25609 16.5853 -17.4723 301.081 81.1676 301.769
lowerback 4.28882 3.05241 6.33029
upperback 6.6751 4.32736 1.4954
thorax 4.89638 2.51761 -1.94835
lowerneck -18.9409 -4.93686 -3.51458
upperneck 23.2992 -7.7048 7.79887
head 11.1542 -2.73925 2.26679
rclavicle 3.8117e-014 1.13307e-014
rhumerus -13.2438 21.7068 -88.7075
rradius 37.7049
rwrist -2.83609
rhand -10.7579 -33.8128
rfingers 7.12502
rthumb 15.2537 -63.2304
lclavicle 3.8117e-014 1.13307e-014
lhumerus -21.3838 -8.48882 87.6914
lradius 32.8862
lwrist 5.45438
lhand -23.5615 -26.6294
lfingers 7.12502
lthumb 2.90085 3.33059
rfemur 12.2988 -3.95546 30.4714
rtibia 10.3662
rfoot -25.046 1.77587
rtoes 7.93182
lfemur -24.5805 -3.39839 0.0332534
ltibia 13.7566
lfoot -11.3237 7.50438
ltoes -11.9026
707
root -8.12621 16.5655 -17.4771 302.203 80.8329 302.649
lowerback 4.11754 3.09485 6.3997
upperback 6.50198 4.36831 1.45336
thorax 4.82251 2.53191 -2.02657
lowerneck -18.9482 -4.9926 -3.52054
upperneck 23.4942 -7.71715 7.50599
head 11.2144 -2.77697 2.16064
rclavicle 4.62174e-014 -1.23246e-014
rhumerus -13.936 21.9533 -89.1863
rradius 38.1135
rwrist -3.94206
rhand -11.5298 -33.2274
rfingers 7.12502
rthumb 14.5101 -62.7
lclavicle 4.62174e-014 -1.23246e-014
lhumerus -21.633 -8.26921 87.9997
lradius 32.8848
lwrist 5.35788
lhand -23.6451 -26.5998
lfingers 7.12502
lthumb 2.82007 3.36128
rfemur 12.5913 -3.80413 30.6601
rtibia 10.3238
rfoot -25.4275 1.73289
rtoes 6.04625
lfemur -24.7361 -3.96938 0.64338
ltibia 12.3601
lfoot -11.3237 7.50438
ltoes -11.9026
708
root -7.99413 16.5451 -17.4855 302.718 80.3311 302.889
lowerback 3.84554 3.1504 6.69574
upperback 6.38641 4.41982 1.48752
thorax 4.88222 2.56572 -2.13968
lowerneck -18.9174 -5.09236 -3.67809
upperneck 23.4777 -7.76745 7.33446
head 11.203 -2.83954 2.11578
rclavicle -1.76421e-014 -1.27222e-014
rhumerus -14.3288 21.9415 -89.3479
rradius 38.5543
rwrist -3.2902
rhand -10.4375 -34.7041
rfingers 7.12502
rthumb 15.5623 -64.0979
lclavicle -1.76421e-014 -1.27222e-014
lhumerus -21.7583 -8.14083 88.3822
lradius 32.7617
lwrist 5.28003
lhand -23.5687 -26.8964
lfingers 7.12502
lthumb 2.89388 3.0637
rfemur 12.8112 -3.59515 31.0705
rtibia 10.4584
rfoot -25.9507 1.87851
rtoes 5.63529
lfemur -24.9474 -4.33283 1.42217
ltibia 11.3777
lfoot -11.3237 7.50438
ltoes -11.9026
709
root -7.8619 16.5236 -17.4922 302.932 79.7017 302.909
lowerback 3.70637 3.2051 7.09337
upperback 6.26715 4.48193 1.56973
thorax 4.86985 2.60736 -2.26717
lowerneck -18.8294 -5.20943 -3.94047
upperneck 23.3996 -7.84438 7.30186
head 11.1707 -2.90901 2.13536
rclavicle 3.02153e-014 4.37326e-014
rhumerus -14.6807 21.9595 -89.5766
rradius 38.6766
rwrist -2.79543
rhand -9.33541 -36.3636
rfingers 7.12502
rthumb 16.6236 -65.6716
lclavicle 3.02153e-014 4.37326e-014
lhumerus -21.923 -8.35483 88.8325
lradius 32.6196
lwrist 5.40414
lhand -23.2678 -26.4834
lfingers 7.12502
lthumb 3.18448 3.47256
rfemur 13.1053 -3.41806 31.6037
rtibia 10.5548
rfoot -26.405 2.11788
rtoes 5.6647
lfemur -25.0322 -4.54396 2.36204
ltibia 9.86341
lfoot -11.3237 7.50438
ltoes -11.9026
